<?xml version="1.0" encoding="utf-8" standalone="no"?>
<!DOCTYPE svg PUBLIC "-//W3C//DTD SVG 1.1//EN"
  "http://www.w3.org/Graphics/SVG/1.1/DTD/svg11.dtd">
<svg xmlns:xlink="http://www.w3.org/1999/xlink" width="576pt" height="576pt" viewBox="0 0 576 576" xmlns="http://www.w3.org/2000/svg" version="1.1">
 <metadata>
  <rdf:RDF xmlns:dc="http://purl.org/dc/elements/1.1/" xmlns:cc="http://creativecommons.org/ns#" xmlns:rdf="http://www.w3.org/1999/02/22-rdf-syntax-ns#">
   <cc:Work>
    <dc:type rdf:resource="http://purl.org/dc/dcmitype/StillImage"/>
    <dc:date>2025-04-21T11:58:16.015727</dc:date>
    <dc:format>image/svg+xml</dc:format>
    <dc:creator>
     <cc:Agent>
      <dc:title>Matplotlib v3.10.0, https://matplotlib.org/</dc:title>
     </cc:Agent>
    </dc:creator>
   </cc:Work>
  </rdf:RDF>
 </metadata>
 <defs>
  <style type="text/css">*{stroke-linejoin: round; stroke-linecap: butt}</style>
 </defs>
 <g id="figure_1">
  <g id="patch_1">
   <path d="M 0 576 
L 576 576 
L 576 0 
L 0 0 
z
" style="fill: #ffffff"/>
  </g>
  <g id="axes_1">
   <g id="patch_2">
    <path d="M 0 576 
L 576 576 
L 576 0 
L 0 0 
z
" style="fill: #ffffff"/>
   </g>
   <g id="line2d_1">
    <path d="M 18 558 
L 54 558 
L 54 522 
L 18 522 
L 18 450 
L 54 450 
L 54 486 
L 90 486 
L 90 450 
L 126 450 
L 126 522 
L 90 522 
L 90 558 
L 162 558 
L 162 522 
L 198 522 
L 198 558 
L 270 558 
L 270 522 
L 234 522 
L 234 486 
L 270 486 
L 270 450 
L 198 450 
L 198 486 
L 162 486 
L 162 378 
L 198 378 
L 198 414 
L 270 414 
L 270 378 
L 234 378 
L 234 342 
L 270 342 
L 270 306 
L 198 306 
L 198 342 
L 162 342 
L 162 306 
L 90 306 
L 90 342 
L 126 342 
L 126 414 
L 90 414 
L 90 378 
L 54 378 
L 54 414 
L 18 414 
L 18 342 
L 54 342 
L 54 306 
L 18 306 
L 18 234 
L 54 234 
L 54 270 
L 126 270 
L 126 234 
L 90 234 
L 90 198 
L 126 198 
L 126 162 
L 54 162 
L 54 198 
L 18 198 
L 18 126 
L 54 126 
L 54 90 
L 18 90 
L 18 18 
L 54 18 
L 54 54 
L 90 54 
L 90 18 
L 126 18 
L 126 90 
L 90 90 
L 90 126 
L 198 126 
L 198 90 
L 162 90 
L 162 18 
L 198 18 
L 198 54 
L 234 54 
L 234 18 
L 270 18 
L 270 90 
L 234 90 
L 234 126 
L 270 126 
L 270 198 
L 234 198 
L 234 162 
L 162 162 
L 162 198 
L 198 198 
L 198 234 
L 162 234 
L 162 270 
L 234 270 
L 234 234 
L 270 234 
L 270 270 
L 306 270 
L 306 234 
L 342 234 
L 342 270 
L 414 270 
L 414 234 
L 378 234 
L 378 198 
L 414 198 
L 414 162 
L 342 162 
L 342 198 
L 306 198 
L 306 126 
L 342 126 
L 342 90 
L 306 90 
L 306 18 
L 342 18 
L 342 54 
L 378 54 
L 378 18 
L 414 18 
L 414 90 
L 378 90 
L 378 126 
L 486 126 
L 486 90 
L 450 90 
L 450 18 
L 486 18 
L 486 54 
L 522 54 
L 522 18 
L 558 18 
L 558 90 
L 522 90 
L 522 126 
L 558 126 
L 558 198 
L 522 198 
L 522 162 
L 450 162 
L 450 198 
L 486 198 
L 486 234 
L 450 234 
L 450 270 
L 522 270 
L 522 234 
L 558 234 
L 558 306 
L 522 306 
L 522 342 
L 558 342 
L 558 414 
L 522 414 
L 522 378 
L 486 378 
L 486 414 
L 450 414 
L 450 342 
L 486 342 
L 486 306 
L 414 306 
L 414 342 
L 378 342 
L 378 306 
L 306 306 
L 306 342 
L 342 342 
L 342 378 
L 306 378 
L 306 414 
L 378 414 
L 378 378 
L 414 378 
L 414 486 
L 378 486 
L 378 450 
L 306 450 
L 306 486 
L 342 486 
L 342 522 
L 306 522 
L 306 558 
L 378 558 
L 378 522 
L 414 522 
L 414 558 
L 486 558 
L 486 522 
L 450 522 
L 450 450 
L 486 450 
L 486 486 
L 522 486 
L 522 450 
L 558 450 
L 558 522 
L 522 522 
L 522 558 
L 558 558 
L 558 558 
" clip-path="url(#p5a69485407)" style="fill: none; stroke: #ff0000; stroke-opacity: 0.6; stroke-width: 1.5; stroke-linecap: square"/>
   </g>
   <g id="matplotlib.axis_1">
    <g id="xtick_1">
     <g id="line2d_2">
      <defs>
       <path id="m27a9a94374" d="M 0 0 
L 0 3.5 
" style="stroke: #000000; stroke-width: 0.8"/>
      </defs>
      <g>
       <use xlink:href="#m27a9a94374" x="18" y="576" style="stroke: #000000; stroke-width: 0.8"/>
      </g>
     </g>
    </g>
    <g id="xtick_2">
     <g id="line2d_3">
      <g>
       <use xlink:href="#m27a9a94374" x="54" y="576" style="stroke: #000000; stroke-width: 0.8"/>
      </g>
     </g>
    </g>
    <g id="xtick_3">
     <g id="line2d_4">
      <g>
       <use xlink:href="#m27a9a94374" x="90" y="576" style="stroke: #000000; stroke-width: 0.8"/>
      </g>
     </g>
    </g>
    <g id="xtick_4">
     <g id="line2d_5">
      <g>
       <use xlink:href="#m27a9a94374" x="126" y="576" style="stroke: #000000; stroke-width: 0.8"/>
      </g>
     </g>
    </g>
    <g id="xtick_5">
     <g id="line2d_6">
      <g>
       <use xlink:href="#m27a9a94374" x="162" y="576" style="stroke: #000000; stroke-width: 0.8"/>
      </g>
     </g>
    </g>
    <g id="xtick_6">
     <g id="line2d_7">
      <g>
       <use xlink:href="#m27a9a94374" x="198" y="576" style="stroke: #000000; stroke-width: 0.8"/>
      </g>
     </g>
    </g>
    <g id="xtick_7">
     <g id="line2d_8">
      <g>
       <use xlink:href="#m27a9a94374" x="234" y="576" style="stroke: #000000; stroke-width: 0.8"/>
      </g>
     </g>
    </g>
    <g id="xtick_8">
     <g id="line2d_9">
      <g>
       <use xlink:href="#m27a9a94374" x="270" y="576" style="stroke: #000000; stroke-width: 0.8"/>
      </g>
     </g>
    </g>
    <g id="xtick_9">
     <g id="line2d_10">
      <g>
       <use xlink:href="#m27a9a94374" x="306" y="576" style="stroke: #000000; stroke-width: 0.8"/>
      </g>
     </g>
    </g>
    <g id="xtick_10">
     <g id="line2d_11">
      <g>
       <use xlink:href="#m27a9a94374" x="342" y="576" style="stroke: #000000; stroke-width: 0.8"/>
      </g>
     </g>
    </g>
    <g id="xtick_11">
     <g id="line2d_12">
      <g>
       <use xlink:href="#m27a9a94374" x="378" y="576" style="stroke: #000000; stroke-width: 0.8"/>
      </g>
     </g>
    </g>
    <g id="xtick_12">
     <g id="line2d_13">
      <g>
       <use xlink:href="#m27a9a94374" x="414" y="576" style="stroke: #000000; stroke-width: 0.8"/>
      </g>
     </g>
    </g>
    <g id="xtick_13">
     <g id="line2d_14">
      <g>
       <use xlink:href="#m27a9a94374" x="450" y="576" style="stroke: #000000; stroke-width: 0.8"/>
      </g>
     </g>
    </g>
    <g id="xtick_14">
     <g id="line2d_15">
      <g>
       <use xlink:href="#m27a9a94374" x="486" y="576" style="stroke: #000000; stroke-width: 0.8"/>
      </g>
     </g>
    </g>
    <g id="xtick_15">
     <g id="line2d_16">
      <g>
       <use xlink:href="#m27a9a94374" x="522" y="576" style="stroke: #000000; stroke-width: 0.8"/>
      </g>
     </g>
    </g>
    <g id="xtick_16">
     <g id="line2d_17">
      <g>
       <use xlink:href="#m27a9a94374" x="558" y="576" style="stroke: #000000; stroke-width: 0.8"/>
      </g>
     </g>
    </g>
    <g id="xtick_17">
     <g id="line2d_18">
      <path d="M 0 576 
L 0 0 
" clip-path="url(#p5a69485407)" style="fill: none; stroke: #000000; stroke-linecap: square"/>
     </g>
     <g id="line2d_19">
      <defs>
       <path id="mdda233dbd0" d="M 0 0 
L 0 2 
" style="stroke: #000000; stroke-width: 0.6"/>
      </defs>
      <g>
       <use xlink:href="#mdda233dbd0" x="0" y="576" style="stroke: #000000; stroke-width: 0.6"/>
      </g>
     </g>
    </g>
    <g id="xtick_18">
     <g id="line2d_20">
      <path d="M 36 576 
L 36 0 
" clip-path="url(#p5a69485407)" style="fill: none; stroke: #000000; stroke-linecap: square"/>
     </g>
     <g id="line2d_21">
      <g>
       <use xlink:href="#mdda233dbd0" x="36" y="576" style="stroke: #000000; stroke-width: 0.6"/>
      </g>
     </g>
    </g>
    <g id="xtick_19">
     <g id="line2d_22">
      <path d="M 72 576 
L 72 0 
" clip-path="url(#p5a69485407)" style="fill: none; stroke: #000000; stroke-linecap: square"/>
     </g>
     <g id="line2d_23">
      <g>
       <use xlink:href="#mdda233dbd0" x="72" y="576" style="stroke: #000000; stroke-width: 0.6"/>
      </g>
     </g>
    </g>
    <g id="xtick_20">
     <g id="line2d_24">
      <path d="M 108 576 
L 108 0 
" clip-path="url(#p5a69485407)" style="fill: none; stroke: #000000; stroke-linecap: square"/>
     </g>
     <g id="line2d_25">
      <g>
       <use xlink:href="#mdda233dbd0" x="108" y="576" style="stroke: #000000; stroke-width: 0.6"/>
      </g>
     </g>
    </g>
    <g id="xtick_21">
     <g id="line2d_26">
      <path d="M 144 576 
L 144 0 
" clip-path="url(#p5a69485407)" style="fill: none; stroke: #000000; stroke-linecap: square"/>
     </g>
     <g id="line2d_27">
      <g>
       <use xlink:href="#mdda233dbd0" x="144" y="576" style="stroke: #000000; stroke-width: 0.6"/>
      </g>
     </g>
    </g>
    <g id="xtick_22">
     <g id="line2d_28">
      <path d="M 180 576 
L 180 0 
" clip-path="url(#p5a69485407)" style="fill: none; stroke: #000000; stroke-linecap: square"/>
     </g>
     <g id="line2d_29">
      <g>
       <use xlink:href="#mdda233dbd0" x="180" y="576" style="stroke: #000000; stroke-width: 0.6"/>
      </g>
     </g>
    </g>
    <g id="xtick_23">
     <g id="line2d_30">
      <path d="M 216 576 
L 216 0 
" clip-path="url(#p5a69485407)" style="fill: none; stroke: #000000; stroke-linecap: square"/>
     </g>
     <g id="line2d_31">
      <g>
       <use xlink:href="#mdda233dbd0" x="216" y="576" style="stroke: #000000; stroke-width: 0.6"/>
      </g>
     </g>
    </g>
    <g id="xtick_24">
     <g id="line2d_32">
      <path d="M 252 576 
L 252 0 
" clip-path="url(#p5a69485407)" style="fill: none; stroke: #000000; stroke-linecap: square"/>
     </g>
     <g id="line2d_33">
      <g>
       <use xlink:href="#mdda233dbd0" x="252" y="576" style="stroke: #000000; stroke-width: 0.6"/>
      </g>
     </g>
    </g>
    <g id="xtick_25">
     <g id="line2d_34">
      <path d="M 288 576 
L 288 0 
" clip-path="url(#p5a69485407)" style="fill: none; stroke: #000000; stroke-linecap: square"/>
     </g>
     <g id="line2d_35">
      <g>
       <use xlink:href="#mdda233dbd0" x="288" y="576" style="stroke: #000000; stroke-width: 0.6"/>
      </g>
     </g>
    </g>
    <g id="xtick_26">
     <g id="line2d_36">
      <path d="M 324 576 
L 324 0 
" clip-path="url(#p5a69485407)" style="fill: none; stroke: #000000; stroke-linecap: square"/>
     </g>
     <g id="line2d_37">
      <g>
       <use xlink:href="#mdda233dbd0" x="324" y="576" style="stroke: #000000; stroke-width: 0.6"/>
      </g>
     </g>
    </g>
    <g id="xtick_27">
     <g id="line2d_38">
      <path d="M 360 576 
L 360 0 
" clip-path="url(#p5a69485407)" style="fill: none; stroke: #000000; stroke-linecap: square"/>
     </g>
     <g id="line2d_39">
      <g>
       <use xlink:href="#mdda233dbd0" x="360" y="576" style="stroke: #000000; stroke-width: 0.6"/>
      </g>
     </g>
    </g>
    <g id="xtick_28">
     <g id="line2d_40">
      <path d="M 396 576 
L 396 0 
" clip-path="url(#p5a69485407)" style="fill: none; stroke: #000000; stroke-linecap: square"/>
     </g>
     <g id="line2d_41">
      <g>
       <use xlink:href="#mdda233dbd0" x="396" y="576" style="stroke: #000000; stroke-width: 0.6"/>
      </g>
     </g>
    </g>
    <g id="xtick_29">
     <g id="line2d_42">
      <path d="M 432 576 
L 432 0 
" clip-path="url(#p5a69485407)" style="fill: none; stroke: #000000; stroke-linecap: square"/>
     </g>
     <g id="line2d_43">
      <g>
       <use xlink:href="#mdda233dbd0" x="432" y="576" style="stroke: #000000; stroke-width: 0.6"/>
      </g>
     </g>
    </g>
    <g id="xtick_30">
     <g id="line2d_44">
      <path d="M 468 576 
L 468 0 
" clip-path="url(#p5a69485407)" style="fill: none; stroke: #000000; stroke-linecap: square"/>
     </g>
     <g id="line2d_45">
      <g>
       <use xlink:href="#mdda233dbd0" x="468" y="576" style="stroke: #000000; stroke-width: 0.6"/>
      </g>
     </g>
    </g>
    <g id="xtick_31">
     <g id="line2d_46">
      <path d="M 504 576 
L 504 0 
" clip-path="url(#p5a69485407)" style="fill: none; stroke: #000000; stroke-linecap: square"/>
     </g>
     <g id="line2d_47">
      <g>
       <use xlink:href="#mdda233dbd0" x="504" y="576" style="stroke: #000000; stroke-width: 0.6"/>
      </g>
     </g>
    </g>
    <g id="xtick_32">
     <g id="line2d_48">
      <path d="M 540 576 
L 540 0 
" clip-path="url(#p5a69485407)" style="fill: none; stroke: #000000; stroke-linecap: square"/>
     </g>
     <g id="line2d_49">
      <g>
       <use xlink:href="#mdda233dbd0" x="540" y="576" style="stroke: #000000; stroke-width: 0.6"/>
      </g>
     </g>
    </g>
    <g id="xtick_33">
     <g id="line2d_50">
      <path d="M 576 576 
L 576 0 
" clip-path="url(#p5a69485407)" style="fill: none; stroke: #000000; stroke-linecap: square"/>
     </g>
     <g id="line2d_51">
      <g>
       <use xlink:href="#mdda233dbd0" x="576" y="576" style="stroke: #000000; stroke-width: 0.6"/>
      </g>
     </g>
    </g>
   </g>
   <g id="matplotlib.axis_2">
    <g id="ytick_1">
     <g id="line2d_52">
      <defs>
       <path id="m6635b4704b" d="M 0 0 
L -3.5 0 
" style="stroke: #000000; stroke-width: 0.8"/>
      </defs>
      <g>
       <use xlink:href="#m6635b4704b" x="0" y="558" style="stroke: #000000; stroke-width: 0.8"/>
      </g>
     </g>
    </g>
    <g id="ytick_2">
     <g id="line2d_53">
      <g>
       <use xlink:href="#m6635b4704b" x="0" y="522" style="stroke: #000000; stroke-width: 0.8"/>
      </g>
     </g>
    </g>
    <g id="ytick_3">
     <g id="line2d_54">
      <g>
       <use xlink:href="#m6635b4704b" x="0" y="486" style="stroke: #000000; stroke-width: 0.8"/>
      </g>
     </g>
    </g>
    <g id="ytick_4">
     <g id="line2d_55">
      <g>
       <use xlink:href="#m6635b4704b" x="0" y="450" style="stroke: #000000; stroke-width: 0.8"/>
      </g>
     </g>
    </g>
    <g id="ytick_5">
     <g id="line2d_56">
      <g>
       <use xlink:href="#m6635b4704b" x="0" y="414" style="stroke: #000000; stroke-width: 0.8"/>
      </g>
     </g>
    </g>
    <g id="ytick_6">
     <g id="line2d_57">
      <g>
       <use xlink:href="#m6635b4704b" x="0" y="378" style="stroke: #000000; stroke-width: 0.8"/>
      </g>
     </g>
    </g>
    <g id="ytick_7">
     <g id="line2d_58">
      <g>
       <use xlink:href="#m6635b4704b" x="0" y="342" style="stroke: #000000; stroke-width: 0.8"/>
      </g>
     </g>
    </g>
    <g id="ytick_8">
     <g id="line2d_59">
      <g>
       <use xlink:href="#m6635b4704b" x="0" y="306" style="stroke: #000000; stroke-width: 0.8"/>
      </g>
     </g>
    </g>
    <g id="ytick_9">
     <g id="line2d_60">
      <g>
       <use xlink:href="#m6635b4704b" x="0" y="270" style="stroke: #000000; stroke-width: 0.8"/>
      </g>
     </g>
    </g>
    <g id="ytick_10">
     <g id="line2d_61">
      <g>
       <use xlink:href="#m6635b4704b" x="0" y="234" style="stroke: #000000; stroke-width: 0.8"/>
      </g>
     </g>
    </g>
    <g id="ytick_11">
     <g id="line2d_62">
      <g>
       <use xlink:href="#m6635b4704b" x="0" y="198" style="stroke: #000000; stroke-width: 0.8"/>
      </g>
     </g>
    </g>
    <g id="ytick_12">
     <g id="line2d_63">
      <g>
       <use xlink:href="#m6635b4704b" x="0" y="162" style="stroke: #000000; stroke-width: 0.8"/>
      </g>
     </g>
    </g>
    <g id="ytick_13">
     <g id="line2d_64">
      <g>
       <use xlink:href="#m6635b4704b" x="0" y="126" style="stroke: #000000; stroke-width: 0.8"/>
      </g>
     </g>
    </g>
    <g id="ytick_14">
     <g id="line2d_65">
      <g>
       <use xlink:href="#m6635b4704b" x="0" y="90" style="stroke: #000000; stroke-width: 0.8"/>
      </g>
     </g>
    </g>
    <g id="ytick_15">
     <g id="line2d_66">
      <g>
       <use xlink:href="#m6635b4704b" x="0" y="54" style="stroke: #000000; stroke-width: 0.8"/>
      </g>
     </g>
    </g>
    <g id="ytick_16">
     <g id="line2d_67">
      <g>
       <use xlink:href="#m6635b4704b" x="0" y="18" style="stroke: #000000; stroke-width: 0.8"/>
      </g>
     </g>
    </g>
    <g id="ytick_17">
     <g id="line2d_68">
      <path d="M 0 576 
L 576 576 
" clip-path="url(#p5a69485407)" style="fill: none; stroke: #000000; stroke-linecap: square"/>
     </g>
     <g id="line2d_69">
      <defs>
       <path id="m70ab8e8d34" d="M 0 0 
L -2 0 
" style="stroke: #000000; stroke-width: 0.6"/>
      </defs>
      <g>
       <use xlink:href="#m70ab8e8d34" x="0" y="576" style="stroke: #000000; stroke-width: 0.6"/>
      </g>
     </g>
    </g>
    <g id="ytick_18">
     <g id="line2d_70">
      <path d="M 0 540 
L 576 540 
" clip-path="url(#p5a69485407)" style="fill: none; stroke: #000000; stroke-linecap: square"/>
     </g>
     <g id="line2d_71">
      <g>
       <use xlink:href="#m70ab8e8d34" x="0" y="540" style="stroke: #000000; stroke-width: 0.6"/>
      </g>
     </g>
    </g>
    <g id="ytick_19">
     <g id="line2d_72">
      <path d="M 0 504 
L 576 504 
" clip-path="url(#p5a69485407)" style="fill: none; stroke: #000000; stroke-linecap: square"/>
     </g>
     <g id="line2d_73">
      <g>
       <use xlink:href="#m70ab8e8d34" x="0" y="504" style="stroke: #000000; stroke-width: 0.6"/>
      </g>
     </g>
    </g>
    <g id="ytick_20">
     <g id="line2d_74">
      <path d="M 0 468 
L 576 468 
" clip-path="url(#p5a69485407)" style="fill: none; stroke: #000000; stroke-linecap: square"/>
     </g>
     <g id="line2d_75">
      <g>
       <use xlink:href="#m70ab8e8d34" x="0" y="468" style="stroke: #000000; stroke-width: 0.6"/>
      </g>
     </g>
    </g>
    <g id="ytick_21">
     <g id="line2d_76">
      <path d="M 0 432 
L 576 432 
" clip-path="url(#p5a69485407)" style="fill: none; stroke: #000000; stroke-linecap: square"/>
     </g>
     <g id="line2d_77">
      <g>
       <use xlink:href="#m70ab8e8d34" x="0" y="432" style="stroke: #000000; stroke-width: 0.6"/>
      </g>
     </g>
    </g>
    <g id="ytick_22">
     <g id="line2d_78">
      <path d="M 0 396 
L 576 396 
" clip-path="url(#p5a69485407)" style="fill: none; stroke: #000000; stroke-linecap: square"/>
     </g>
     <g id="line2d_79">
      <g>
       <use xlink:href="#m70ab8e8d34" x="0" y="396" style="stroke: #000000; stroke-width: 0.6"/>
      </g>
     </g>
    </g>
    <g id="ytick_23">
     <g id="line2d_80">
      <path d="M 0 360 
L 576 360 
" clip-path="url(#p5a69485407)" style="fill: none; stroke: #000000; stroke-linecap: square"/>
     </g>
     <g id="line2d_81">
      <g>
       <use xlink:href="#m70ab8e8d34" x="0" y="360" style="stroke: #000000; stroke-width: 0.6"/>
      </g>
     </g>
    </g>
    <g id="ytick_24">
     <g id="line2d_82">
      <path d="M 0 324 
L 576 324 
" clip-path="url(#p5a69485407)" style="fill: none; stroke: #000000; stroke-linecap: square"/>
     </g>
     <g id="line2d_83">
      <g>
       <use xlink:href="#m70ab8e8d34" x="0" y="324" style="stroke: #000000; stroke-width: 0.6"/>
      </g>
     </g>
    </g>
    <g id="ytick_25">
     <g id="line2d_84">
      <path d="M 0 288 
L 576 288 
" clip-path="url(#p5a69485407)" style="fill: none; stroke: #000000; stroke-linecap: square"/>
     </g>
     <g id="line2d_85">
      <g>
       <use xlink:href="#m70ab8e8d34" x="0" y="288" style="stroke: #000000; stroke-width: 0.6"/>
      </g>
     </g>
    </g>
    <g id="ytick_26">
     <g id="line2d_86">
      <path d="M 0 252 
L 576 252 
" clip-path="url(#p5a69485407)" style="fill: none; stroke: #000000; stroke-linecap: square"/>
     </g>
     <g id="line2d_87">
      <g>
       <use xlink:href="#m70ab8e8d34" x="0" y="252" style="stroke: #000000; stroke-width: 0.6"/>
      </g>
     </g>
    </g>
    <g id="ytick_27">
     <g id="line2d_88">
      <path d="M 0 216 
L 576 216 
" clip-path="url(#p5a69485407)" style="fill: none; stroke: #000000; stroke-linecap: square"/>
     </g>
     <g id="line2d_89">
      <g>
       <use xlink:href="#m70ab8e8d34" x="0" y="216" style="stroke: #000000; stroke-width: 0.6"/>
      </g>
     </g>
    </g>
    <g id="ytick_28">
     <g id="line2d_90">
      <path d="M 0 180 
L 576 180 
" clip-path="url(#p5a69485407)" style="fill: none; stroke: #000000; stroke-linecap: square"/>
     </g>
     <g id="line2d_91">
      <g>
       <use xlink:href="#m70ab8e8d34" x="0" y="180" style="stroke: #000000; stroke-width: 0.6"/>
      </g>
     </g>
    </g>
    <g id="ytick_29">
     <g id="line2d_92">
      <path d="M 0 144 
L 576 144 
" clip-path="url(#p5a69485407)" style="fill: none; stroke: #000000; stroke-linecap: square"/>
     </g>
     <g id="line2d_93">
      <g>
       <use xlink:href="#m70ab8e8d34" x="0" y="144" style="stroke: #000000; stroke-width: 0.6"/>
      </g>
     </g>
    </g>
    <g id="ytick_30">
     <g id="line2d_94">
      <path d="M 0 108 
L 576 108 
" clip-path="url(#p5a69485407)" style="fill: none; stroke: #000000; stroke-linecap: square"/>
     </g>
     <g id="line2d_95">
      <g>
       <use xlink:href="#m70ab8e8d34" x="0" y="108" style="stroke: #000000; stroke-width: 0.6"/>
      </g>
     </g>
    </g>
    <g id="ytick_31">
     <g id="line2d_96">
      <path d="M 0 72 
L 576 72 
" clip-path="url(#p5a69485407)" style="fill: none; stroke: #000000; stroke-linecap: square"/>
     </g>
     <g id="line2d_97">
      <g>
       <use xlink:href="#m70ab8e8d34" x="0" y="72" style="stroke: #000000; stroke-width: 0.6"/>
      </g>
     </g>
    </g>
    <g id="ytick_32">
     <g id="line2d_98">
      <path d="M 0 36 
L 576 36 
" clip-path="url(#p5a69485407)" style="fill: none; stroke: #000000; stroke-linecap: square"/>
     </g>
     <g id="line2d_99">
      <g>
       <use xlink:href="#m70ab8e8d34" x="0" y="36" style="stroke: #000000; stroke-width: 0.6"/>
      </g>
     </g>
    </g>
    <g id="ytick_33">
     <g id="line2d_100">
      <path d="M 0 0 
L 576 0 
" clip-path="url(#p5a69485407)" style="fill: none; stroke: #000000; stroke-linecap: square"/>
     </g>
     <g id="line2d_101">
      <g>
       <use xlink:href="#m70ab8e8d34" x="0" y="0" style="stroke: #000000; stroke-width: 0.6"/>
      </g>
     </g>
    </g>
   </g>
   <g id="patch_3">
    <path d="M 0 576 
L 0 0 
" style="fill: none; stroke: #000000; stroke-width: 0.8; stroke-linejoin: miter; stroke-linecap: square"/>
   </g>
   <g id="patch_4">
    <path d="M 576 576 
L 576 0 
" style="fill: none; stroke: #000000; stroke-width: 0.8; stroke-linejoin: miter; stroke-linecap: square"/>
   </g>
   <g id="patch_5">
    <path d="M 0 576 
L 576 576 
" style="fill: none; stroke: #000000; stroke-width: 0.8; stroke-linejoin: miter; stroke-linecap: square"/>
   </g>
   <g id="patch_6">
    <path d="M 0 0 
L 576 0 
" style="fill: none; stroke: #000000; stroke-width: 0.8; stroke-linejoin: miter; stroke-linecap: square"/>
   </g>
   <g id="text_1">
    <!-- O2 -->
    <g transform="translate(226.882812 416.759375) scale(0.1 -0.1)">
     <defs>
      <path id="DejaVuSans-4f" d="M 2522 4238 
Q 1834 4238 1429 3725 
Q 1025 3213 1025 2328 
Q 1025 1447 1429 934 
Q 1834 422 2522 422 
Q 3209 422 3611 934 
Q 4013 1447 4013 2328 
Q 4013 3213 3611 3725 
Q 3209 4238 2522 4238 
z
M 2522 4750 
Q 3503 4750 4090 4092 
Q 4678 3434 4678 2328 
Q 4678 1225 4090 567 
Q 3503 -91 2522 -91 
Q 1538 -91 948 565 
Q 359 1222 359 2328 
Q 359 3434 948 4092 
Q 1538 4750 2522 4750 
z
" transform="scale(0.015625)"/>
      <path id="DejaVuSans-32" d="M 1228 531 
L 3431 531 
L 3431 0 
L 469 0 
L 469 531 
Q 828 903 1448 1529 
Q 2069 2156 2228 2338 
Q 2531 2678 2651 2914 
Q 2772 3150 2772 3378 
Q 2772 3750 2511 3984 
Q 2250 4219 1831 4219 
Q 1534 4219 1204 4116 
Q 875 4013 500 3803 
L 500 4441 
Q 881 4594 1212 4672 
Q 1544 4750 1819 4750 
Q 2544 4750 2975 4387 
Q 3406 4025 3406 3419 
Q 3406 3131 3298 2873 
Q 3191 2616 2906 2266 
Q 2828 2175 2409 1742 
Q 1991 1309 1228 531 
z
" transform="scale(0.015625)"/>
     </defs>
     <use xlink:href="#DejaVuSans-4f"/>
     <use xlink:href="#DejaVuSans-32" transform="translate(78.710938 0)"/>
    </g>
   </g>
   <g id="text_2">
    <!-- Oz -->
    <g transform="translate(263.439844 416.759375) scale(0.1 -0.1)">
     <defs>
      <path id="DejaVuSans-7a" d="M 353 3500 
L 3084 3500 
L 3084 2975 
L 922 459 
L 3084 459 
L 3084 0 
L 275 0 
L 275 525 
L 2438 3041 
L 353 3041 
L 353 3500 
z
" transform="scale(0.015625)"/>
     </defs>
     <use xlink:href="#DejaVuSans-4f"/>
     <use xlink:href="#DejaVuSans-7a" transform="translate(78.710938 0)"/>
    </g>
   </g>
   <g id="text_3">
    <!-- O1 -->
    <g transform="translate(334.882812 416.759375) scale(0.1 -0.1)">
     <defs>
      <path id="DejaVuSans-31" d="M 794 531 
L 1825 531 
L 1825 4091 
L 703 3866 
L 703 4441 
L 1819 4666 
L 2450 4666 
L 2450 531 
L 3481 531 
L 3481 0 
L 794 0 
L 794 531 
z
" transform="scale(0.015625)"/>
     </defs>
     <use xlink:href="#DejaVuSans-4f"/>
     <use xlink:href="#DejaVuSans-31" transform="translate(78.710938 0)"/>
    </g>
   </g>
   <g id="text_4">
    <!-- PO4 -->
    <g transform="translate(223.867969 380.759375) scale(0.1 -0.1)">
     <defs>
      <path id="DejaVuSans-50" d="M 1259 4147 
L 1259 2394 
L 2053 2394 
Q 2494 2394 2734 2622 
Q 2975 2850 2975 3272 
Q 2975 3691 2734 3919 
Q 2494 4147 2053 4147 
L 1259 4147 
z
M 628 4666 
L 2053 4666 
Q 2838 4666 3239 4311 
Q 3641 3956 3641 3272 
Q 3641 2581 3239 2228 
Q 2838 1875 2053 1875 
L 1259 1875 
L 1259 0 
L 628 0 
L 628 4666 
z
" transform="scale(0.015625)"/>
      <path id="DejaVuSans-34" d="M 2419 4116 
L 825 1625 
L 2419 1625 
L 2419 4116 
z
M 2253 4666 
L 3047 4666 
L 3047 1625 
L 3713 1625 
L 3713 1100 
L 3047 1100 
L 3047 0 
L 2419 0 
L 2419 1100 
L 313 1100 
L 313 1709 
L 2253 4666 
z
" transform="scale(0.015625)"/>
     </defs>
     <use xlink:href="#DejaVuSans-50"/>
     <use xlink:href="#DejaVuSans-4f" transform="translate(60.302734 0)"/>
     <use xlink:href="#DejaVuSans-34" transform="translate(139.013672 0)"/>
    </g>
   </g>
   <g id="text_5">
    <!-- PO3 -->
    <g transform="translate(331.867969 380.759375) scale(0.1 -0.1)">
     <defs>
      <path id="DejaVuSans-33" d="M 2597 2516 
Q 3050 2419 3304 2112 
Q 3559 1806 3559 1356 
Q 3559 666 3084 287 
Q 2609 -91 1734 -91 
Q 1441 -91 1130 -33 
Q 819 25 488 141 
L 488 750 
Q 750 597 1062 519 
Q 1375 441 1716 441 
Q 2309 441 2620 675 
Q 2931 909 2931 1356 
Q 2931 1769 2642 2001 
Q 2353 2234 1838 2234 
L 1294 2234 
L 1294 2753 
L 1863 2753 
Q 2328 2753 2575 2939 
Q 2822 3125 2822 3475 
Q 2822 3834 2567 4026 
Q 2313 4219 1838 4219 
Q 1578 4219 1281 4162 
Q 984 4106 628 3988 
L 628 4550 
Q 988 4650 1302 4700 
Q 1616 4750 1894 4750 
Q 2613 4750 3031 4423 
Q 3450 4097 3450 3541 
Q 3450 3153 3228 2886 
Q 3006 2619 2597 2516 
z
" transform="scale(0.015625)"/>
     </defs>
     <use xlink:href="#DejaVuSans-50"/>
     <use xlink:href="#DejaVuSans-4f" transform="translate(60.302734 0)"/>
     <use xlink:href="#DejaVuSans-33" transform="translate(139.013672 0)"/>
    </g>
   </g>
   <g id="text_6">
    <!-- P8 -->
    <g transform="translate(119.803906 344.759375) scale(0.1 -0.1)">
     <defs>
      <path id="DejaVuSans-38" d="M 2034 2216 
Q 1584 2216 1326 1975 
Q 1069 1734 1069 1313 
Q 1069 891 1326 650 
Q 1584 409 2034 409 
Q 2484 409 2743 651 
Q 3003 894 3003 1313 
Q 3003 1734 2745 1975 
Q 2488 2216 2034 2216 
z
M 1403 2484 
Q 997 2584 770 2862 
Q 544 3141 544 3541 
Q 544 4100 942 4425 
Q 1341 4750 2034 4750 
Q 2731 4750 3128 4425 
Q 3525 4100 3525 3541 
Q 3525 3141 3298 2862 
Q 3072 2584 2669 2484 
Q 3125 2378 3379 2068 
Q 3634 1759 3634 1313 
Q 3634 634 3220 271 
Q 2806 -91 2034 -91 
Q 1263 -91 848 271 
Q 434 634 434 1313 
Q 434 1759 690 2068 
Q 947 2378 1403 2484 
z
M 1172 3481 
Q 1172 3119 1398 2916 
Q 1625 2713 2034 2713 
Q 2441 2713 2670 2916 
Q 2900 3119 2900 3481 
Q 2900 3844 2670 4047 
Q 2441 4250 2034 4250 
Q 1625 4250 1398 4047 
Q 1172 3844 1172 3481 
z
" transform="scale(0.015625)"/>
     </defs>
     <use xlink:href="#DejaVuSans-50"/>
     <use xlink:href="#DejaVuSans-38" transform="translate(60.302734 0)"/>
    </g>
   </g>
   <g id="text_7">
    <!-- P4 -->
    <g transform="translate(191.803906 344.759375) scale(0.1 -0.1)">
     <use xlink:href="#DejaVuSans-50"/>
     <use xlink:href="#DejaVuSans-34" transform="translate(60.302734 0)"/>
    </g>
   </g>
   <g id="text_8">
    <!-- Pz -->
    <g transform="translate(300.360937 344.759375) scale(0.1 -0.1)">
     <use xlink:href="#DejaVuSans-50"/>
     <use xlink:href="#DejaVuSans-7a" transform="translate(60.302734 0)"/>
    </g>
   </g>
   <g id="text_9">
    <!-- P3 -->
    <g transform="translate(371.803906 344.759375) scale(0.1 -0.1)">
     <use xlink:href="#DejaVuSans-50"/>
     <use xlink:href="#DejaVuSans-33" transform="translate(60.302734 0)"/>
    </g>
   </g>
   <g id="text_10">
    <!-- P7 -->
    <g transform="translate(443.803906 344.759375) scale(0.1 -0.1)">
     <defs>
      <path id="DejaVuSans-37" d="M 525 4666 
L 3525 4666 
L 3525 4397 
L 1831 0 
L 1172 0 
L 2766 4134 
L 525 4134 
L 525 4666 
z
" transform="scale(0.015625)"/>
     </defs>
     <use xlink:href="#DejaVuSans-50"/>
     <use xlink:href="#DejaVuSans-37" transform="translate(60.302734 0)"/>
    </g>
   </g>
   <g id="text_11">
    <!-- CP6 -->
    <g transform="translate(152.3125 308.759375) scale(0.1 -0.1)">
     <defs>
      <path id="DejaVuSans-43" d="M 4122 4306 
L 4122 3641 
Q 3803 3938 3442 4084 
Q 3081 4231 2675 4231 
Q 1875 4231 1450 3742 
Q 1025 3253 1025 2328 
Q 1025 1406 1450 917 
Q 1875 428 2675 428 
Q 3081 428 3442 575 
Q 3803 722 4122 1019 
L 4122 359 
Q 3791 134 3420 21 
Q 3050 -91 2638 -91 
Q 1578 -91 968 557 
Q 359 1206 359 2328 
Q 359 3453 968 4101 
Q 1578 4750 2638 4750 
Q 3056 4750 3426 4639 
Q 3797 4528 4122 4306 
z
" transform="scale(0.015625)"/>
      <path id="DejaVuSans-36" d="M 2113 2584 
Q 1688 2584 1439 2293 
Q 1191 2003 1191 1497 
Q 1191 994 1439 701 
Q 1688 409 2113 409 
Q 2538 409 2786 701 
Q 3034 994 3034 1497 
Q 3034 2003 2786 2293 
Q 2538 2584 2113 2584 
z
M 3366 4563 
L 3366 3988 
Q 3128 4100 2886 4159 
Q 2644 4219 2406 4219 
Q 1781 4219 1451 3797 
Q 1122 3375 1075 2522 
Q 1259 2794 1537 2939 
Q 1816 3084 2150 3084 
Q 2853 3084 3261 2657 
Q 3669 2231 3669 1497 
Q 3669 778 3244 343 
Q 2819 -91 2113 -91 
Q 1303 -91 875 529 
Q 447 1150 447 2328 
Q 447 3434 972 4092 
Q 1497 4750 2381 4750 
Q 2619 4750 2861 4703 
Q 3103 4656 3366 4563 
z
" transform="scale(0.015625)"/>
     </defs>
     <use xlink:href="#DejaVuSans-43"/>
     <use xlink:href="#DejaVuSans-50" transform="translate(69.824219 0)"/>
     <use xlink:href="#DejaVuSans-36" transform="translate(130.126953 0)"/>
    </g>
   </g>
   <g id="text_12">
    <!-- CP2 -->
    <g transform="translate(224.3125 308.759375) scale(0.1 -0.1)">
     <use xlink:href="#DejaVuSans-43"/>
     <use xlink:href="#DejaVuSans-50" transform="translate(69.824219 0)"/>
     <use xlink:href="#DejaVuSans-32" transform="translate(130.126953 0)"/>
    </g>
   </g>
   <g id="text_13">
    <!-- CP1 -->
    <g transform="translate(332.3125 308.759375) scale(0.1 -0.1)">
     <use xlink:href="#DejaVuSans-43"/>
     <use xlink:href="#DejaVuSans-50" transform="translate(69.824219 0)"/>
     <use xlink:href="#DejaVuSans-31" transform="translate(130.126953 0)"/>
    </g>
   </g>
   <g id="text_14">
    <!-- CP5 -->
    <g transform="translate(404.3125 308.759375) scale(0.1 -0.1)">
     <defs>
      <path id="DejaVuSans-35" d="M 691 4666 
L 3169 4666 
L 3169 4134 
L 1269 4134 
L 1269 2991 
Q 1406 3038 1543 3061 
Q 1681 3084 1819 3084 
Q 2600 3084 3056 2656 
Q 3513 2228 3513 1497 
Q 3513 744 3044 326 
Q 2575 -91 1722 -91 
Q 1428 -91 1123 -41 
Q 819 9 494 109 
L 494 744 
Q 775 591 1075 516 
Q 1375 441 1709 441 
Q 2250 441 2565 725 
Q 2881 1009 2881 1497 
Q 2881 1984 2565 2268 
Q 2250 2553 1709 2553 
Q 1456 2553 1204 2497 
Q 953 2441 691 2322 
L 691 4666 
z
" transform="scale(0.015625)"/>
     </defs>
     <use xlink:href="#DejaVuSans-43"/>
     <use xlink:href="#DejaVuSans-50" transform="translate(69.824219 0)"/>
     <use xlink:href="#DejaVuSans-35" transform="translate(130.126953 0)"/>
    </g>
   </g>
   <g id="text_15">
    <!-- T8 -->
    <g transform="translate(119.764844 272.759375) scale(0.1 -0.1)">
     <defs>
      <path id="DejaVuSans-54" d="M -19 4666 
L 3928 4666 
L 3928 4134 
L 2272 4134 
L 2272 0 
L 1638 0 
L 1638 4134 
L -19 4134 
L -19 4666 
z
" transform="scale(0.015625)"/>
     </defs>
     <use xlink:href="#DejaVuSans-54"/>
     <use xlink:href="#DejaVuSans-38" transform="translate(61.083984 0)"/>
    </g>
   </g>
   <g id="text_16">
    <!-- C4 -->
    <g transform="translate(191.327344 272.759375) scale(0.1 -0.1)">
     <use xlink:href="#DejaVuSans-43"/>
     <use xlink:href="#DejaVuSans-34" transform="translate(69.824219 0)"/>
    </g>
   </g>
   <g id="text_17">
    <!-- Cz -->
    <g transform="translate(263.884375 272.759375) scale(0.1 -0.1)">
     <use xlink:href="#DejaVuSans-43"/>
     <use xlink:href="#DejaVuSans-7a" transform="translate(69.824219 0)"/>
    </g>
   </g>
   <g id="text_18">
    <!-- C3 -->
    <g transform="translate(371.327344 272.759375) scale(0.1 -0.1)">
     <use xlink:href="#DejaVuSans-43"/>
     <use xlink:href="#DejaVuSans-33" transform="translate(69.824219 0)"/>
    </g>
   </g>
   <g id="text_19">
    <!-- T7 -->
    <g transform="translate(443.764844 272.759375) scale(0.1 -0.1)">
     <use xlink:href="#DejaVuSans-54"/>
     <use xlink:href="#DejaVuSans-37" transform="translate(61.083984 0)"/>
    </g>
   </g>
   <g id="text_20">
    <!-- FC6 -->
    <g transform="translate(152.451562 236.759375) scale(0.1 -0.1)">
     <defs>
      <path id="DejaVuSans-46" d="M 628 4666 
L 3309 4666 
L 3309 4134 
L 1259 4134 
L 1259 2759 
L 3109 2759 
L 3109 2228 
L 1259 2228 
L 1259 0 
L 628 0 
L 628 4666 
z
" transform="scale(0.015625)"/>
     </defs>
     <use xlink:href="#DejaVuSans-46"/>
     <use xlink:href="#DejaVuSans-43" transform="translate(57.519531 0)"/>
     <use xlink:href="#DejaVuSans-36" transform="translate(127.34375 0)"/>
    </g>
   </g>
   <g id="text_21">
    <!-- FC2 -->
    <g transform="translate(224.451562 236.759375) scale(0.1 -0.1)">
     <use xlink:href="#DejaVuSans-46"/>
     <use xlink:href="#DejaVuSans-43" transform="translate(57.519531 0)"/>
     <use xlink:href="#DejaVuSans-32" transform="translate(127.34375 0)"/>
    </g>
   </g>
   <g id="text_22">
    <!-- FC1 -->
    <g transform="translate(332.451563 236.759375) scale(0.1 -0.1)">
     <use xlink:href="#DejaVuSans-46"/>
     <use xlink:href="#DejaVuSans-43" transform="translate(57.519531 0)"/>
     <use xlink:href="#DejaVuSans-31" transform="translate(127.34375 0)"/>
    </g>
   </g>
   <g id="text_23">
    <!-- FC5 -->
    <g transform="translate(404.451563 236.759375) scale(0.1 -0.1)">
     <use xlink:href="#DejaVuSans-46"/>
     <use xlink:href="#DejaVuSans-43" transform="translate(57.519531 0)"/>
     <use xlink:href="#DejaVuSans-35" transform="translate(127.34375 0)"/>
    </g>
   </g>
   <g id="text_24">
    <!-- F8 -->
    <g transform="translate(119.942969 200.759375) scale(0.1 -0.1)">
     <use xlink:href="#DejaVuSans-46"/>
     <use xlink:href="#DejaVuSans-38" transform="translate(57.519531 0)"/>
    </g>
   </g>
   <g id="text_25">
    <!-- F4 -->
    <g transform="translate(191.942969 200.759375) scale(0.1 -0.1)">
     <use xlink:href="#DejaVuSans-46"/>
     <use xlink:href="#DejaVuSans-34" transform="translate(57.519531 0)"/>
    </g>
   </g>
   <g id="text_26">
    <!-- Fz -->
    <g transform="translate(300.5 200.759375) scale(0.1 -0.1)">
     <use xlink:href="#DejaVuSans-46"/>
     <use xlink:href="#DejaVuSans-7a" transform="translate(57.519531 0)"/>
    </g>
   </g>
   <g id="text_27">
    <!-- F3 -->
    <g transform="translate(371.942969 200.759375) scale(0.1 -0.1)">
     <use xlink:href="#DejaVuSans-46"/>
     <use xlink:href="#DejaVuSans-33" transform="translate(57.519531 0)"/>
    </g>
   </g>
   <g id="text_28">
    <!-- F7 -->
    <g transform="translate(443.942969 200.759375) scale(0.1 -0.1)">
     <use xlink:href="#DejaVuSans-46"/>
     <use xlink:href="#DejaVuSans-37" transform="translate(57.519531 0)"/>
    </g>
   </g>
   <g id="text_29">
    <!-- AF4 -->
    <g transform="translate(224.522656 164.759375) scale(0.1 -0.1)">
     <defs>
      <path id="DejaVuSans-41" d="M 2188 4044 
L 1331 1722 
L 3047 1722 
L 2188 4044 
z
M 1831 4666 
L 2547 4666 
L 4325 0 
L 3669 0 
L 3244 1197 
L 1141 1197 
L 716 0 
L 50 0 
L 1831 4666 
z
" transform="scale(0.015625)"/>
     </defs>
     <use xlink:href="#DejaVuSans-41"/>
     <use xlink:href="#DejaVuSans-46" transform="translate(68.408203 0)"/>
     <use xlink:href="#DejaVuSans-34" transform="translate(125.927734 0)"/>
    </g>
   </g>
   <g id="text_30">
    <!-- AF3 -->
    <g transform="translate(332.522656 164.759375) scale(0.1 -0.1)">
     <use xlink:href="#DejaVuSans-41"/>
     <use xlink:href="#DejaVuSans-46" transform="translate(68.408203 0)"/>
     <use xlink:href="#DejaVuSans-33" transform="translate(125.927734 0)"/>
    </g>
   </g>
   <g id="text_31">
    <!-- FP2 -->
    <g transform="translate(224.928125 128.759375) scale(0.1 -0.1)">
     <use xlink:href="#DejaVuSans-46"/>
     <use xlink:href="#DejaVuSans-50" transform="translate(57.519531 0)"/>
     <use xlink:href="#DejaVuSans-32" transform="translate(117.822266 0)"/>
    </g>
   </g>
   <g id="text_32">
    <!-- FP1 -->
    <g transform="translate(332.928125 128.759375) scale(0.1 -0.1)">
     <use xlink:href="#DejaVuSans-46"/>
     <use xlink:href="#DejaVuSans-50" transform="translate(57.519531 0)"/>
     <use xlink:href="#DejaVuSans-31" transform="translate(117.822266 0)"/>
    </g>
   </g>
  </g>
 </g>
 <defs>
  <clipPath id="p5a69485407">
   <rect x="0" y="0" width="576" height="576"/>
  </clipPath>
 </defs>
</svg>
